<?xml version="1.0" encoding="UTF-8"?>
<svg id="Layer_1" data-name="Layer 1" xmlns="http://www.w3.org/2000/svg" viewBox="0 0 21.76 32.39">
  <defs>
    <style>
      .cls-1 {
        fill: #3f5641;
      }
    </style>
  </defs>
  <path class="cls-1" d="M19,17.94v.92c-1.32,1.11-2.62,2.17-3.92,3.18s-2.87,2.14-4.72,3.39c-.95,1.29-1.76,2.35-2.44,3.18s-1.27,1.51-1.77,2.06-.75.82-.76.83c-.16.2-.43.39-.81.59s-.7.29-.95.29c-.36,0-.66-.13-.89-.39s-.35-.57-.35-.93c0-.92.49-1.91,1.46-2.96s2.39-2.12,4.26-3.22c.92-1.33,1.81-2.67,2.65-4.01s1.58-2.57,2.21-3.68,1.21-2.2,1.74-3.28c-.83.69-1.66,1.36-2.48,2s-1.62,1.25-2.41,1.84-1.27.95-1.46,1.08l-.49.36c-2.01,1.76-3.51,2.64-4.51,2.64s-1.75-.45-2.39-1.35-.97-2.04-.97-3.42c0-.87.14-1.77.42-2.71s.7-1.91,1.27-2.9,1.26-1.95,2.06-2.88,1.68-1.77,2.64-2.55c1.48-1.18,3.14-2.23,4.98-3.16s3.55-1.64,5.13-2.13,2.75-.74,3.5-.74c.44,0,.79.11,1.05.32s.44.5.55.87.17.75.17,1.15c0,.37-.12.74-.35,1.11-.34.5-.92,1.02-1.77,1.57s-1.69,1.03-2.55,1.46-1.35.63-1.47.63c-.07,0-.1-.02-.1-.07,0-.1.13-.27.4-.5s.56-.47.88-.71c.72-.54,1.14-1.12,1.27-1.73-1.12.31-2.24.72-3.35,1.23s-2.21,1.12-3.29,1.82-2.17,1.51-3.26,2.41c-1.23,1.03-2.27,2.1-3.13,3.22s-1.51,2.15-1.96,3.1-.67,1.68-.67,2.18c0,.38.12.71.36,1s.57.43.99.43c.49,0,1.09-.21,1.8-.64.77-.46,1.63-1.06,2.56-1.78s1.79-1.41,2.58-2.05,1.64-1.36,2.55-2.13c.84-.71,1.5-1.28,1.97-1.71s.82-.81,1.05-1.13c.49-.67.97-1.06,1.45-1.16s.89,0,1.23.29.51.66.51,1.08c0,.14-.25.68-.76,1.62s-1.27,2.31-2.31,4.09-2.31,3.89-3.82,6.32c1.34-.72,3.48-2.16,6.43-4.32Z"/>
</svg>