<?xml version="1.0" encoding="UTF-8"?>
<svg id="Layer_1" data-name="Layer 1" xmlns="http://www.w3.org/2000/svg" viewBox="0 0 79.8 34.03">
  <defs>
    <style>
      .cls-1, .cls-2 {
        fill: #314c54;
      }

      .cls-2 {
        stroke: #314c54;
        stroke-miterlimit: 10;
        stroke-width: .25px;
      }
    </style>
  </defs>
  <path class="cls-1" d="M17.7,16.71v.86c-1.23,1.03-2.44,2.02-3.65,2.96s-2.67,1.99-4.39,3.16c-.88,1.21-1.64,2.19-2.28,2.96s-1.18,1.41-1.65,1.91-.7.76-.71.77c-.15.18-.4.37-.76.55s-.65.27-.89.27c-.33,0-.61-.12-.83-.36s-.33-.53-.33-.86c0-.86.45-1.78,1.36-2.75s2.23-1.97,3.97-2.99c.86-1.24,1.68-2.48,2.47-3.74s1.47-2.4,2.06-3.43,1.13-2.05,1.62-3.05c-.77.65-1.54,1.27-2.31,1.86s-1.51,1.17-2.24,1.71-1.18.88-1.36,1.01l-.45.34c-1.87,1.64-3.27,2.45-4.2,2.45s-1.63-.42-2.23-1.26-.9-1.9-.9-3.18c0-.81.13-1.65.39-2.53s.65-1.78,1.19-2.7,1.17-1.82,1.91-2.68,1.56-1.65,2.45-2.37c1.38-1.1,2.92-2.08,4.63-2.95s3.3-1.53,4.78-1.99,2.56-.69,3.26-.69c.41,0,.73.1.98.3s.41.47.52.81.15.7.15,1.07c0,.34-.11.69-.32,1.03-.31.46-.86.95-1.65,1.46s-1.58.96-2.37,1.36-1.25.59-1.37.59c-.06,0-.1-.02-.1-.06,0-.1.12-.25.37-.47s.52-.44.82-.66c.67-.51,1.06-1.04,1.18-1.61-1.04.29-2.08.67-3.12,1.15s-2.06,1.04-3.07,1.7-2.02,1.4-3.04,2.24c-1.14.96-2.11,1.96-2.92,2.99s-1.41,2-1.82,2.88-.62,1.56-.62,2.03c0,.36.11.66.34.93s.53.4.92.4c.45,0,1.01-.2,1.68-.6.72-.43,1.51-.98,2.38-1.66s1.67-1.31,2.4-1.91,1.52-1.26,2.37-1.99c.79-.66,1.4-1.19,1.83-1.59s.76-.76.98-1.06c.45-.62.9-.98,1.35-1.08s.83,0,1.15.27.48.61.48,1.01c0,.13-.24.63-.7,1.51s-1.18,2.15-2.15,3.81-2.15,3.63-3.56,5.89c1.25-.67,3.25-2.01,5.99-4.02Z"/>
  <path class="cls-1" d="M28,16.74v1.08c-.71.65-1.28,1.08-1.71,1.29s-1.05.3-1.86.26c-1.4,1.66-2.63,2.49-3.7,2.49-.6,0-1.15-.2-1.65-.6s-.89-.94-1.19-1.63-.44-1.46-.44-2.31c0-.69.23-1.45.69-2.29s1.05-1.62,1.78-2.35,1.51-1.31,2.33-1.76,1.6-.67,2.31-.67c.51,0,.9.08,1.19.23s.44.37.44.65c0,.22-.12.46-.37.74.41.09.69.23.84.43s.23.56.23,1.09-.12,1.17-.36,1.95-.57,1.52-.99,2.21l.29.29h.24c.18,0,.36-.05.54-.14s.34-.19.48-.29.45-.33.92-.69ZM24.67,12.5c-.89.54-1.66,1.02-2.29,1.46s-1.17.88-1.61,1.32-.74.9-.89,1.35c-.27,1.21-.4,1.86-.4,1.95,0,.71.5,1.07,1.49,1.07.46,0,1.24-.4,2.32-1.19-.18-.51-.27-.99-.27-1.45,0-.68.14-1.37.42-2.08s.69-1.51,1.24-2.43Z"/>
  <path class="cls-1" d="M38.35,16.74v1.08c-.71.65-1.28,1.08-1.71,1.29s-1.05.3-1.86.26c-1.4,1.66-2.63,2.49-3.7,2.49-.6,0-1.15-.2-1.65-.6s-.89-.94-1.19-1.63-.44-1.46-.44-2.31c0-.69.23-1.45.69-2.29s1.05-1.62,1.78-2.35,1.51-1.31,2.33-1.76,1.6-.67,2.31-.67c.51,0,.9.08,1.19.23s.44.37.44.65c0,.22-.12.46-.37.74.41.09.69.23.84.43s.23.56.23,1.09-.12,1.17-.36,1.95-.57,1.52-.99,2.21l.29.29h.24c.18,0,.36-.05.54-.14s.34-.19.48-.29.45-.33.92-.69ZM35.02,12.5c-.89.54-1.66,1.02-2.29,1.46s-1.17.88-1.61,1.32-.74.9-.89,1.35c-.27,1.21-.4,1.86-.4,1.95,0,.71.5,1.07,1.49,1.07.46,0,1.24-.4,2.32-1.19-.18-.51-.27-.99-.27-1.45,0-.68.14-1.37.42-2.08s.69-1.51,1.24-2.43Z"/>
  <path class="cls-1" d="M45.69,16.81c-.95,1.08-1.8,1.99-2.54,2.74s-1.36,1.31-1.82,1.69-.79.56-.96.56c-.28,0-.6-.23-.95-.68s-.65-1.03-.9-1.73-.37-1.41-.37-2.13c0-1.04.51-2.1,1.52-3.16s2.16-1.94,3.46-2.64,2.26-1.05,2.91-1.05c.53,0,1.04.33,1.55,1,.83-1.73,1.62-3.27,2.36-4.62s1.38-2.35,1.88-3,.87-.98,1.08-.98c.24,0,.45.11.65.35s.3.49.3.78c0,.56-.41,1.52-1.23,2.88s-1.63,2.69-2.42,3.98-1.48,2.56-2.05,3.82-.86,2.41-.86,3.48c0,.97.31,1.45.94,1.45.38,0,.85-.21,1.42-.64s1.38-1.14,2.44-2.14v1.18c-2.32,3-4.12,4.5-5.38,4.5-.51,0-.87-.19-1.09-.58s-.33-.96-.33-1.73c0-1.03.13-2.15.39-3.34ZM46.89,12.87c-.96.32-2.08.84-3.37,1.56s-2.07,1.21-2.34,1.48c-.24.22-.45.62-.63,1.21s-.27,1.04-.27,1.34c0,.18.05.33.16.45s.24.18.4.18c.15,0,.32-.06.52-.19s.5-.38.93-.76.7-.62.83-.73c.18-.16.59-.51,1.22-1.04s1.09-.95,1.38-1.25.54-.64.74-1.01.35-.78.44-1.23Z"/>
  <path class="cls-1" d="M52.04,17.23v-.39c2.78-2.93,4.69-4.98,5.73-6.15.24-1.32.81-1.99,1.71-1.99.23,0,.47.06.73.19l.1.31c-.04.13-.06.31-.06.55,0,.2.08.58.23,1.14s.28,1.02.36,1.4.13.8.13,1.28c0,.71-.16,1.39-.48,2.04s-.79,1.28-1.4,1.87-1.4,1.21-2.37,1.83c.39.06.69.1.92.1.44,0,.92-.11,1.43-.33s1.03-.52,1.57-.89,1.16-.85,1.87-1.44v1.08c-1.38,1.35-2.61,2.36-3.7,3.06s-2.02,1.04-2.81,1.04c-1.01,0-1.95-.43-2.81-1.29-.51-.52-.82-1.01-.95-1.49s-.18-1.11-.18-1.92ZM58.06,14.76l-.29-2.36c-.67.75-2.09,2.2-4.28,4.34.65.14,1.09.33,1.32.57s.57.69,1,1.37c.73-.3,1.29-.71,1.69-1.24s.59-1.23.59-2.14c0-.11,0-.2,0-.29s-.01-.17-.02-.26Z"/>
  <path class="cls-1" d="M70.14,16.78v1.18c-1.04,1.35-2.02,2.36-2.92,3.04s-1.67,1.03-2.31,1.03c-.88,0-1.54-.46-1.97-1.39s-.65-1.94-.65-3.04c0-.42.04-.82.13-1.2s.19-.7.31-.94.34-.64.66-1.16c1.53-2.38,2.93-3.57,4.2-3.57.66,0,.98.25.98.76,0,.34-.21.88-.64,1.61s-.8,1.25-1.14,1.57c-.94.9-1.55,1.53-1.83,1.89s-.43.76-.43,1.21c0,.39.15.71.44.97s.67.39,1.13.39c.51,0,1.06-.19,1.67-.56s1.4-.97,2.37-1.78ZM69.04,9.56c-.27,0-.53-.1-.77-.31s-.36-.46-.36-.77c0-.47.23-1,.68-1.58s.92-.87,1.4-.87c.32,0,.59.1.81.3s.32.49.32.86c0,.46-.22.97-.66,1.53s-.91.84-1.42.84Z"/>
  <path class="cls-1" d="M69.83,18.02v-1.05c.58-.69,1.02-1.28,1.32-1.76-.34-.12-.6-.26-.75-.44s-.23-.43-.23-.77c0-.39.16-.88.48-1.47s.72-1.15,1.19-1.66.9-.85,1.29-1c.15-.08.3-.11.44-.11.22,0,.32.1.32.31,0,.18-.17.55-.5,1.11,2.22-.34,3.62-.52,4.2-.52.23,0,.38.02.47.06.18.1.33.32.45.68s.18.71.18,1.07c0,.23-.1.47-.3.73s-.54.65-1.02,1.16c-.57.61-1.05,1.28-1.44,2s-.58,1.26-.58,1.63c0,.51.31.76.94.76.66,0,1.8-.67,3.42-2v1.08c-.89.94-1.63,1.67-2.21,2.21s-1.12.97-1.61,1.28-.94.48-1.32.48c-.45,0-.83-.21-1.13-.62s-.45-1.01-.45-1.8c0-.46.12-.99.36-1.58s.58-1.24,1.04-1.93.97-1.38,1.54-2.07c-.3.06-.64.13-1.02.2s-.77.14-1.19.22-.74.13-.97.18c-.67,1.33-1.64,2.55-2.91,3.63Z"/>
  <path class="cls-1" d="M60.69,31.38c-.07-.01-.16-.1-.13-.16l1.26-1.38c.04-.11-.28-.04-.37-.08-.07-.02-.13-.12-.08-.18l1.16-1.36v-.05c-.16,0-.45.04-.36-.16l1.12-1.17.07-.02.09.03,1.12,1.17c.09.18-.24.15-.38.15v.05s1.18,1.37,1.18,1.37c.04.05-.03.15-.09.17-.1.03-.42-.04-.38.08l1.25,1.35c.06.06-.06.2-.13.2h-.41l-.03.04.97,1.37c.05.07-.06.2-.15.2h-2.49v.93c0,.06-.17.11-.24.11-.14.01-.52.01-.66,0-.06,0-.19-.06-.19-.11v-.93h-2.47c-.12,0-.23-.11-.18-.2l.97-1.35s-.01-.06-.03-.06c-.11,0-.32.01-.41,0Z"/>
  <path class="cls-1" d="M16.3,32.89l-3.75-4.46v4.46h-.58v-5.01h.84l3.75,4.48v-4.48h.58v5.01h-.84Z"/>
  <path class="cls-1" d="M24.42,32.89l-.78-1.4h-3.5l-.75,1.4h-.66l2.82-5.01h.66l2.93,5.01h-.73ZM21.84,28.32l-1.5,2.8h3.08l-1.58-2.8Z"/>
  <path class="cls-1" d="M27.86,28.26v4.64h-.62v-4.64h-2.21v-.37h5.04v.37h-2.22Z"/>
  <path class="cls-1" d="M34.19,32.97c-1.7,0-2.65-.69-2.65-1.92v-3.17h.65v3.01c0,.39,0,.79.32,1.12.37.4,1.04.58,1.68.58.75,0,1.49-.24,1.82-.76.17-.28.18-.64.18-.94v-3.01h.65v3.17c0,1.19-.99,1.92-2.65,1.92Z"/>
  <path class="cls-1" d="M43.17,32.89c-.23-.36-.23-.81-.28-1.21-.1-.83-.16-1.21-1.41-1.21h-1.63v2.42h-.62v-5.01h2.32c1.08,0,2.18.29,2.18,1.21,0,.66-.5,1.01-1.33,1.19.37.05.72.17.88.44.33.54.21,1.86.61,2.18h-.72ZM41.4,28.26h-1.56v1.84h1.51c.92,0,1.71-.19,1.71-.96s-.8-.88-1.66-.88Z"/>
  <path class="cls-1" d="M46,32.89v-5.01h4.1v.37h-3.48v1.84h3.34v.37h-3.34v2.05h3.62v.37h-4.24Z"/>
  <path class="cls-1" d="M58.51,30.54c-.41.1-.9.12-1.39.12h-1.12v2.23h-.62v-5.01h1.94c.75,0,1.31.08,1.68.26.55.26.77.63.77,1.14,0,.61-.48,1.07-1.27,1.27ZM57.35,28.26h-1.35v2.03h1.03c.37,0,.91-.01,1.26-.1.54-.14.81-.55.81-.95,0-.83-.8-.98-1.76-.98Z"/>
  <path class="cls-1" d="M65.82,32.89l-.78-1.4h-3.5l-.75,1.4h-.66l2.82-5.01h.66l2.93,5.01h-.73ZM63.24,28.32l-1.5,2.8h3.08l-1.58-2.8Z"/>
  <path class="cls-1" d="M72.08,32.89c-.23-.36-.23-.81-.28-1.21-.1-.83-.16-1.21-1.41-1.21h-1.63v2.42h-.62v-5.01h2.32c1.08,0,2.18.29,2.18,1.21,0,.66-.5,1.01-1.33,1.19.37.05.72.17.88.44.33.54.21,1.86.61,2.18h-.72ZM70.31,28.26h-1.56v1.84h1.51c.92,0,1.71-.19,1.71-.96s-.8-.88-1.66-.88Z"/>
  <path class="cls-1" d="M74.91,32.89v-5.01h.62v5.01h-.62ZM78.95,32.89l-3.38-2.72,3.08-2.29h.83l-3.16,2.26,3.49,2.75h-.85Z"/>
  <line class="cls-2" x1="11.98" y1="24.91" x2="79.8" y2="24.91"/>
</svg>