<?xml version="1.0" encoding="UTF-8"?>
<svg xmlns="http://www.w3.org/2000/svg" version="1.1" viewBox="0 0 85.7 36.5">
  <!-- Generator: Adobe Illustrator 29.8.2, SVG Export Plug-In . SVG Version: 2.1.1 Build 3)  -->
  <defs>
    <style>
      .st0, .st1 {
        fill: #fff;
      }

      .st0, .st2 {
        stroke: #314c54;
        stroke-miterlimit: 10;
        stroke-width: .2px;
      }

      .st3, .st2 {
        fill: #314c54;
      }

      .st4 {
        display: none;
      }
    </style>
  </defs>
  <g id="Layer_1" class="st4">
    <g>
      <path class="st3" d="M20.6,18v.9c-1.2,1-2.4,2-3.6,3s-2.7,2-4.4,3.2c-.9,1.2-1.6,2.2-2.3,3s-1.2,1.4-1.6,1.9-.7.8-.7.8c-.2.2-.4.4-.8.5s-.7.3-.9.3-.6-.1-.8-.4-.3-.5-.3-.9c0-.9.5-1.8,1.4-2.8s2.2-2,4-3c.9-1.2,1.7-2.5,2.5-3.7s1.5-2.4,2.1-3.4,1.1-2.1,1.6-3.1c-.8.6-1.5,1.3-2.3,1.9s-1.5,1.2-2.2,1.7-1.2.9-1.4,1l-.5.3c-1.9,1.6-3.3,2.5-4.2,2.5s-1.6-.4-2.2-1.3-.9-1.9-.9-3.2.1-1.7.4-2.5.7-1.8,1.2-2.7,1.2-1.8,1.9-2.7,1.6-1.7,2.5-2.4c1.4-1.1,2.9-2.1,4.6-2.9s3.3-1.5,4.8-2,2.6-.7,3.3-.7.7,0,1,.3.4.5.5.8.2.7.2,1.1-.1.7-.3,1c-.3.5-.9.9-1.6,1.5s-1.6,1-2.4,1.4-1.3.6-1.4.6,0,0,0,0c0,0,.1-.3.4-.5s.5-.4.8-.7c.7-.5,1.1-1,1.2-1.6-1,.3-2.1.7-3.1,1.1s-2.1,1-3.1,1.7-2,1.4-3,2.2c-1.1,1-2.1,2-2.9,3s-1.4,2-1.8,2.9-.6,1.6-.6,2,.1.7.3.9.5.4.9.4,1-.2,1.7-.6c.7-.4,1.5-1,2.4-1.7s1.7-1.3,2.4-1.9,1.5-1.3,2.4-2c.8-.7,1.4-1.2,1.8-1.6s.8-.8,1-1.1c.5-.6.9-1,1.3-1.1s.8,0,1.1.3.5.6.5,1-.2.6-.7,1.5-1.2,2.1-2.1,3.8-2.1,3.6-3.6,5.9c1.2-.7,3.2-2,6-4Z"/>
      <path class="st3" d="M30.9,18v1.1c-.7.6-1.3,1.1-1.7,1.3s-1,.3-1.9.3c-1.4,1.7-2.6,2.5-3.7,2.5s-1.2-.2-1.6-.6-.9-.9-1.2-1.6-.4-1.5-.4-2.3.2-1.5.7-2.3,1-1.6,1.8-2.4,1.5-1.3,2.3-1.8,1.6-.7,2.3-.7.9,0,1.2.2.4.4.4.7-.1.5-.4.7c.4,0,.7.2.8.4s.2.6.2,1.1-.1,1.2-.4,2-.6,1.5-1,2.2l.3.3h.2c.2,0,.4,0,.5-.1s.3-.2.5-.3.4-.3.9-.7ZM27.6,13.8c-.9.5-1.7,1-2.3,1.5s-1.2.9-1.6,1.3-.7.9-.9,1.3c-.3,1.2-.4,1.9-.4,2,0,.7.5,1.1,1.5,1.1s1.2-.4,2.3-1.2c-.2-.5-.3-1-.3-1.5,0-.7.1-1.4.4-2.1s.7-1.5,1.2-2.4Z"/>
      <path class="st3" d="M41.3,18v1.1c-.7.6-1.3,1.1-1.7,1.3s-1,.3-1.9.3c-1.4,1.7-2.6,2.5-3.7,2.5s-1.2-.2-1.6-.6-.9-.9-1.2-1.6-.4-1.5-.4-2.3.2-1.5.7-2.3,1-1.6,1.8-2.4,1.5-1.3,2.3-1.8,1.6-.7,2.3-.7.9,0,1.2.2.4.4.4.7-.1.5-.4.7c.4,0,.7.2.8.4s.2.6.2,1.1-.1,1.2-.4,2-.6,1.5-1,2.2l.3.3h.2c.2,0,.4,0,.5-.1s.3-.2.5-.3.4-.3.9-.7ZM38,13.8c-.9.5-1.7,1-2.3,1.5s-1.2.9-1.6,1.3-.7.9-.9,1.3c-.3,1.2-.4,1.9-.4,2,0,.7.5,1.1,1.5,1.1s1.2-.4,2.3-1.2c-.2-.5-.3-1-.3-1.5,0-.7.1-1.4.4-2.1s.7-1.5,1.2-2.4Z"/>
      <path class="st3" d="M48.6,18.1c-.9,1.1-1.8,2-2.5,2.7s-1.4,1.3-1.8,1.7-.8.6-1,.6c-.3,0-.6-.2-.9-.7s-.6-1-.9-1.7-.4-1.4-.4-2.1c0-1,.5-2.1,1.5-3.2s2.2-1.9,3.5-2.6,2.3-1,2.9-1,1,.3,1.5,1c.8-1.7,1.6-3.3,2.4-4.6s1.4-2.3,1.9-3,.9-1,1.1-1,.5.1.7.3.3.5.3.8c0,.6-.4,1.5-1.2,2.9s-1.6,2.7-2.4,4-1.5,2.6-2.1,3.8-.9,2.4-.9,3.5.3,1.5.9,1.5.9-.2,1.4-.6,1.4-1.1,2.4-2.1v1.2c-2.3,3-4.1,4.5-5.4,4.5s-.9-.2-1.1-.6-.3-1-.3-1.7.1-2.1.4-3.3ZM49.8,14.1c-1,.3-2.1.8-3.4,1.6s-2.1,1.2-2.3,1.5c-.2.2-.4.6-.6,1.2s-.3,1-.3,1.3,0,.3.2.5.2.2.4.2.3,0,.5-.2.5-.4.9-.8.7-.6.8-.7c.2-.2.6-.5,1.2-1s1.1-.9,1.4-1.3.5-.6.7-1,.3-.8.4-1.2Z"/>
      <path class="st3" d="M55,18.5v-.4c2.8-2.9,4.7-5,5.7-6.2.2-1.3.8-2,1.7-2s.5,0,.7.2v.3c0,.1,0,.3,0,.5s0,.6.2,1.1.3,1,.4,1.4.1.8.1,1.3c0,.7-.2,1.4-.5,2s-.8,1.3-1.4,1.9-1.4,1.2-2.4,1.8c.4,0,.7,0,.9,0,.4,0,.9-.1,1.4-.3s1-.5,1.6-.9,1.2-.9,1.9-1.4v1.1c-1.4,1.3-2.6,2.4-3.7,3.1s-2,1-2.8,1-1.9-.4-2.8-1.3c-.5-.5-.8-1-.9-1.5s-.2-1.1-.2-1.9ZM61,16l-.3-2.4c-.7.8-2.1,2.2-4.3,4.3.6.1,1.1.3,1.3.6s.6.7,1,1.4c.7-.3,1.3-.7,1.7-1.2s.6-1.2.6-2.1,0-.2,0-.3,0-.2,0-.3Z"/>
      <path class="st3" d="M73.1,18v1.2c-1,1.3-2,2.4-2.9,3s-1.7,1-2.3,1-1.5-.5-2-1.4-.6-1.9-.6-3,0-.8.1-1.2.2-.7.3-.9.3-.6.7-1.2c1.5-2.4,2.9-3.6,4.2-3.6s1,.3,1,.8-.2.9-.6,1.6-.8,1.3-1.1,1.6c-.9.9-1.5,1.5-1.8,1.9s-.4.8-.4,1.2.1.7.4,1,.7.4,1.1.4,1.1-.2,1.7-.6,1.4-1,2.4-1.8ZM72,10.8c-.3,0-.5-.1-.8-.3s-.4-.5-.4-.8c0-.5.2-1,.7-1.6s.9-.9,1.4-.9.6,0,.8.3.3.5.3.9-.2,1-.7,1.5-.9.8-1.4.8Z"/>
      <path class="st3" d="M72.8,19.3v-1c.6-.7,1-1.3,1.3-1.8-.3-.1-.6-.3-.8-.4s-.2-.4-.2-.8.2-.9.5-1.5.7-1.1,1.2-1.7.9-.9,1.3-1c.2,0,.3-.1.4-.1.2,0,.3.1.3.3s-.2.6-.5,1.1c2.2-.3,3.6-.5,4.2-.5s.4,0,.5,0c.2,0,.3.3.5.7s.2.7.2,1.1-.1.5-.3.7-.5.6-1,1.2c-.6.6-1,1.3-1.4,2s-.6,1.3-.6,1.6.3.8.9.8,1.8-.7,3.4-2v1.1c-.9.9-1.6,1.7-2.2,2.2s-1.1,1-1.6,1.3-.9.5-1.3.5-.8-.2-1.1-.6-.5-1-.5-1.8.1-1,.4-1.6.6-1.2,1-1.9,1-1.4,1.5-2.1c-.3,0-.6.1-1,.2s-.8.1-1.2.2-.7.1-1,.2c-.7,1.3-1.6,2.5-2.9,3.6Z"/>
      <path class="st3" d="M63.6,32.6c0,0-.2-.1-.1-.2l1.3-1.4c0-.1-.3,0-.4,0s-.1-.1,0-.2l1.2-1.4h0c-.2,0-.5,0-.4-.2l1.1-1.2h0s0,0,0,0l1.1,1.2c0,.2-.2.2-.4.1h0s1.2,1.4,1.2,1.4c0,0,0,.1,0,.2,0,0-.4,0-.4,0l1.2,1.3c0,0,0,.2-.1.2h-.4s1,1.4,1,1.4c0,0,0,.2-.2.2h-2.5v.9c0,0-.2.1-.2.1-.1,0-.5,0-.7,0s-.2,0-.2-.1v-.9h-2.5c-.1,0-.2-.1-.2-.2l1-1.4s0,0,0,0c-.1,0-.3,0-.4,0Z"/>
      <path class="st3" d="M19.2,34.2l-3.7-4.5v4.5h-.6v-5h.8l3.7,4.5v-4.5h.6v5h-.8Z"/>
      <path class="st3" d="M27.4,34.2l-.8-1.4h-3.5l-.7,1.4h-.7l2.8-5h.7l2.9,5h-.7ZM24.8,29.6l-1.5,2.8h3.1l-1.6-2.8Z"/>
      <path class="st3" d="M30.8,29.5v4.6h-.6v-4.6h-2.2v-.4h5v.4h-2.2Z"/>
      <path class="st3" d="M37.1,34.2c-1.7,0-2.6-.7-2.6-1.9v-3.2h.6v3c0,.4,0,.8.3,1.1.4.4,1,.6,1.7.6s1.5-.2,1.8-.8c.2-.3.2-.6.2-.9v-3h.6v3.2c0,1.2-1,1.9-2.6,1.9Z"/>
      <path class="st3" d="M46.1,34.2c-.2-.4-.2-.8-.3-1.2,0-.8-.2-1.2-1.4-1.2h-1.6v2.4h-.6v-5h2.3c1.1,0,2.2.3,2.2,1.2s-.5,1-1.3,1.2c.4,0,.7.2.9.4.3.5.2,1.9.6,2.2h-.7ZM44.3,29.5h-1.6v1.8h1.5c.9,0,1.7-.2,1.7-1s-.8-.9-1.7-.9Z"/>
      <path class="st3" d="M48.9,34.2v-5h4.1v.4h-3.5v1.8h3.3v.4h-3.3v2h3.6v.4h-4.2Z"/>
      <path class="st3" d="M61.5,31.8c-.4,0-.9.1-1.4.1h-1.1v2.2h-.6v-5h1.9c.8,0,1.3,0,1.7.3.6.3.8.6.8,1.1s-.5,1.1-1.3,1.3ZM60.3,29.5h-1.3v2h1c.4,0,.9,0,1.3-.1.5-.1.8-.6.8-.9,0-.8-.8-1-1.8-1Z"/>
      <path class="st3" d="M68.8,34.2l-.8-1.4h-3.5l-.7,1.4h-.7l2.8-5h.7l2.9,5h-.7ZM66.2,29.6l-1.5,2.8h3.1l-1.6-2.8Z"/>
      <path class="st3" d="M75,34.2c-.2-.4-.2-.8-.3-1.2,0-.8-.2-1.2-1.4-1.2h-1.6v2.4h-.6v-5h2.3c1.1,0,2.2.3,2.2,1.2s-.5,1-1.3,1.2c.4,0,.7.2.9.4.3.5.2,1.9.6,2.2h-.7ZM73.3,29.5h-1.6v1.8h1.5c.9,0,1.7-.2,1.7-1s-.8-.9-1.7-.9Z"/>
      <path class="st3" d="M77.9,34.2v-5h.6v5h-.6ZM81.9,34.2l-3.4-2.7,3.1-2.3h.8l-3.2,2.3,3.5,2.8h-.8Z"/>
      <line class="st2" x1="14.9" y1="26.2" x2="82.7" y2="26.2"/>
    </g>
    <g>
      <path class="st3" d="M20.6,18v.9c-1.2,1-2.4,2-3.6,3s-2.7,2-4.4,3.2c-.9,1.2-1.6,2.2-2.3,3s-1.2,1.4-1.6,1.9-.7.8-.7.8c-.2.2-.4.4-.8.5s-.7.3-.9.3-.6-.1-.8-.4-.3-.5-.3-.9c0-.9.5-1.8,1.4-2.8s2.2-2,4-3c.9-1.2,1.7-2.5,2.5-3.7s1.5-2.4,2.1-3.4,1.1-2.1,1.6-3.1c-.8.6-1.5,1.3-2.3,1.9s-1.5,1.2-2.2,1.7-1.2.9-1.4,1l-.5.3c-1.9,1.6-3.3,2.5-4.2,2.5s-1.6-.4-2.2-1.3-.9-1.9-.9-3.2.1-1.7.4-2.5.7-1.8,1.2-2.7,1.2-1.8,1.9-2.7,1.6-1.7,2.5-2.4c1.4-1.1,2.9-2.1,4.6-2.9s3.3-1.5,4.8-2,2.6-.7,3.3-.7.7,0,1,.3.4.5.5.8.2.7.2,1.1-.1.7-.3,1c-.3.5-.9.9-1.6,1.5s-1.6,1-2.4,1.4-1.3.6-1.4.6,0,0,0,0c0,0,.1-.3.4-.5s.5-.4.8-.7c.7-.5,1.1-1,1.2-1.6-1,.3-2.1.7-3.1,1.1s-2.1,1-3.1,1.7-2,1.4-3,2.2c-1.1,1-2.1,2-2.9,3s-1.4,2-1.8,2.9-.6,1.6-.6,2,.1.7.3.9.5.4.9.4,1-.2,1.7-.6c.7-.4,1.5-1,2.4-1.7s1.7-1.3,2.4-1.9,1.5-1.3,2.4-2c.8-.7,1.4-1.2,1.8-1.6s.8-.8,1-1.1c.5-.6.9-1,1.3-1.1s.8,0,1.1.3.5.6.5,1-.2.6-.7,1.5-1.2,2.1-2.1,3.8-2.1,3.6-3.6,5.9c1.2-.7,3.2-2,6-4Z"/>
      <path class="st3" d="M30.9,18v1.1c-.7.6-1.3,1.1-1.7,1.3s-1,.3-1.9.3c-1.4,1.7-2.6,2.5-3.7,2.5s-1.2-.2-1.6-.6-.9-.9-1.2-1.6-.4-1.5-.4-2.3.2-1.5.7-2.3,1-1.6,1.8-2.4,1.5-1.3,2.3-1.8,1.6-.7,2.3-.7.9,0,1.2.2.4.4.4.7-.1.5-.4.7c.4,0,.7.2.8.4s.2.6.2,1.1-.1,1.2-.4,2-.6,1.5-1,2.2l.3.3h.2c.2,0,.4,0,.5-.1s.3-.2.5-.3.4-.3.9-.7ZM27.6,13.8c-.9.5-1.7,1-2.3,1.5s-1.2.9-1.6,1.3-.7.9-.9,1.3c-.3,1.2-.4,1.9-.4,2,0,.7.5,1.1,1.5,1.1s1.2-.4,2.3-1.2c-.2-.5-.3-1-.3-1.5,0-.7.1-1.4.4-2.1s.7-1.5,1.2-2.4Z"/>
      <path class="st3" d="M41.3,18v1.1c-.7.6-1.3,1.1-1.7,1.3s-1,.3-1.9.3c-1.4,1.7-2.6,2.5-3.7,2.5s-1.2-.2-1.6-.6-.9-.9-1.2-1.6-.4-1.5-.4-2.3.2-1.5.7-2.3,1-1.6,1.8-2.4,1.5-1.3,2.3-1.8,1.6-.7,2.3-.7.9,0,1.2.2.4.4.4.7-.1.5-.4.7c.4,0,.7.2.8.4s.2.6.2,1.1-.1,1.2-.4,2-.6,1.5-1,2.2l.3.3h.2c.2,0,.4,0,.5-.1s.3-.2.5-.3.4-.3.9-.7ZM38,13.8c-.9.5-1.7,1-2.3,1.5s-1.2.9-1.6,1.3-.7.9-.9,1.3c-.3,1.2-.4,1.9-.4,2,0,.7.5,1.1,1.5,1.1s1.2-.4,2.3-1.2c-.2-.5-.3-1-.3-1.5,0-.7.1-1.4.4-2.1s.7-1.5,1.2-2.4Z"/>
      <path class="st3" d="M48.6,18.1c-.9,1.1-1.8,2-2.5,2.7s-1.4,1.3-1.8,1.7-.8.6-1,.6c-.3,0-.6-.2-.9-.7s-.6-1-.9-1.7-.4-1.4-.4-2.1c0-1,.5-2.1,1.5-3.2s2.2-1.9,3.5-2.6,2.3-1,2.9-1,1,.3,1.5,1c.8-1.7,1.6-3.3,2.4-4.6s1.4-2.3,1.9-3,.9-1,1.1-1,.5.1.7.3.3.5.3.8c0,.6-.4,1.5-1.2,2.9s-1.6,2.7-2.4,4-1.5,2.6-2.1,3.8-.9,2.4-.9,3.5.3,1.5.9,1.5.9-.2,1.4-.6,1.4-1.1,2.4-2.1v1.2c-2.3,3-4.1,4.5-5.4,4.5s-.9-.2-1.1-.6-.3-1-.3-1.7.1-2.1.4-3.3ZM49.8,14.1c-1,.3-2.1.8-3.4,1.6s-2.1,1.2-2.3,1.5c-.2.2-.4.6-.6,1.2s-.3,1-.3,1.3,0,.3.2.5.2.2.4.2.3,0,.5-.2.5-.4.9-.8.7-.6.8-.7c.2-.2.6-.5,1.2-1s1.1-.9,1.4-1.3.5-.6.7-1,.3-.8.4-1.2Z"/>
      <path class="st3" d="M55,18.5v-.4c2.8-2.9,4.7-5,5.7-6.2.2-1.3.8-2,1.7-2s.5,0,.7.2v.3c0,.1,0,.3,0,.5s0,.6.2,1.1.3,1,.4,1.4.1.8.1,1.3c0,.7-.2,1.4-.5,2s-.8,1.3-1.4,1.9-1.4,1.2-2.4,1.8c.4,0,.7,0,.9,0,.4,0,.9-.1,1.4-.3s1-.5,1.6-.9,1.2-.9,1.9-1.4v1.1c-1.4,1.3-2.6,2.4-3.7,3.1s-2,1-2.8,1-1.9-.4-2.8-1.3c-.5-.5-.8-1-.9-1.5s-.2-1.1-.2-1.9ZM61,16l-.3-2.4c-.7.8-2.1,2.2-4.3,4.3.6.1,1.1.3,1.3.6s.6.7,1,1.4c.7-.3,1.3-.7,1.7-1.2s.6-1.2.6-2.1,0-.2,0-.3,0-.2,0-.3Z"/>
      <path class="st3" d="M73.1,18v1.2c-1,1.3-2,2.4-2.9,3s-1.7,1-2.3,1-1.5-.5-2-1.4-.6-1.9-.6-3,0-.8.1-1.2.2-.7.3-.9.3-.6.7-1.2c1.5-2.4,2.9-3.6,4.2-3.6s1,.3,1,.8-.2.9-.6,1.6-.8,1.3-1.1,1.6c-.9.9-1.5,1.5-1.8,1.9s-.4.8-.4,1.2.1.7.4,1,.7.4,1.1.4,1.1-.2,1.7-.6,1.4-1,2.4-1.8ZM72,10.8c-.3,0-.5-.1-.8-.3s-.4-.5-.4-.8c0-.5.2-1,.7-1.6s.9-.9,1.4-.9.6,0,.8.3.3.5.3.9-.2,1-.7,1.5-.9.8-1.4.8Z"/>
      <path class="st3" d="M72.8,19.3v-1c.6-.7,1-1.3,1.3-1.8-.3-.1-.6-.3-.8-.4s-.2-.4-.2-.8.2-.9.5-1.5.7-1.1,1.2-1.7.9-.9,1.3-1c.2,0,.3-.1.4-.1.2,0,.3.1.3.3s-.2.6-.5,1.1c2.2-.3,3.6-.5,4.2-.5s.4,0,.5,0c.2,0,.3.3.5.7s.2.7.2,1.1-.1.5-.3.7-.5.6-1,1.2c-.6.6-1,1.3-1.4,2s-.6,1.3-.6,1.6.3.8.9.8,1.8-.7,3.4-2v1.1c-.9.9-1.6,1.7-2.2,2.2s-1.1,1-1.6,1.3-.9.5-1.3.5-.8-.2-1.1-.6-.5-1-.5-1.8.1-1,.4-1.6.6-1.2,1-1.9,1-1.4,1.5-2.1c-.3,0-.6.1-1,.2s-.8.1-1.2.2-.7.1-1,.2c-.7,1.3-1.6,2.5-2.9,3.6Z"/>
      <path class="st3" d="M63.6,32.6c0,0-.2-.1-.1-.2l1.3-1.4c0-.1-.3,0-.4,0s-.1-.1,0-.2l1.2-1.4h0c-.2,0-.5,0-.4-.2l1.1-1.2h0s0,0,0,0l1.1,1.2c0,.2-.2.2-.4.1h0s1.2,1.4,1.2,1.4c0,0,0,.1,0,.2,0,0-.4,0-.4,0l1.2,1.3c0,0,0,.2-.1.2h-.4s1,1.4,1,1.4c0,0,0,.2-.2.2h-2.5v.9c0,0-.2.1-.2.1-.1,0-.5,0-.7,0s-.2,0-.2-.1v-.9h-2.5c-.1,0-.2-.1-.2-.2l1-1.4s0,0,0,0c-.1,0-.3,0-.4,0Z"/>
      <path class="st3" d="M19.2,34.2l-3.7-4.5v4.5h-.6v-5h.8l3.7,4.5v-4.5h.6v5h-.8Z"/>
      <path class="st3" d="M27.4,34.2l-.8-1.4h-3.5l-.7,1.4h-.7l2.8-5h.7l2.9,5h-.7ZM24.8,29.6l-1.5,2.8h3.1l-1.6-2.8Z"/>
      <path class="st3" d="M30.8,29.5v4.6h-.6v-4.6h-2.2v-.4h5v.4h-2.2Z"/>
      <path class="st3" d="M37.1,34.2c-1.7,0-2.6-.7-2.6-1.9v-3.2h.6v3c0,.4,0,.8.3,1.1.4.4,1,.6,1.7.6s1.5-.2,1.8-.8c.2-.3.2-.6.2-.9v-3h.6v3.2c0,1.2-1,1.9-2.6,1.9Z"/>
      <path class="st3" d="M46.1,34.2c-.2-.4-.2-.8-.3-1.2,0-.8-.2-1.2-1.4-1.2h-1.6v2.4h-.6v-5h2.3c1.1,0,2.2.3,2.2,1.2s-.5,1-1.3,1.2c.4,0,.7.2.9.4.3.5.2,1.9.6,2.2h-.7ZM44.3,29.5h-1.6v1.8h1.5c.9,0,1.7-.2,1.7-1s-.8-.9-1.7-.9Z"/>
      <path class="st3" d="M48.9,34.2v-5h4.1v.4h-3.5v1.8h3.3v.4h-3.3v2h3.6v.4h-4.2Z"/>
      <path class="st3" d="M61.5,31.8c-.4,0-.9.1-1.4.1h-1.1v2.2h-.6v-5h1.9c.8,0,1.3,0,1.7.3.6.3.8.6.8,1.1s-.5,1.1-1.3,1.3ZM60.3,29.5h-1.3v2h1c.4,0,.9,0,1.3-.1.5-.1.8-.6.8-.9,0-.8-.8-1-1.8-1Z"/>
      <path class="st3" d="M68.8,34.2l-.8-1.4h-3.5l-.7,1.4h-.7l2.8-5h.7l2.9,5h-.7ZM66.2,29.6l-1.5,2.8h3.1l-1.6-2.8Z"/>
      <path class="st3" d="M75,34.2c-.2-.4-.2-.8-.3-1.2,0-.8-.2-1.2-1.4-1.2h-1.6v2.4h-.6v-5h2.3c1.1,0,2.2.3,2.2,1.2s-.5,1-1.3,1.2c.4,0,.7.2.9.4.3.5.2,1.9.6,2.2h-.7ZM73.3,29.5h-1.6v1.8h1.5c.9,0,1.7-.2,1.7-1s-.8-.9-1.7-.9Z"/>
      <path class="st3" d="M77.9,34.2v-5h.6v5h-.6ZM81.9,34.2l-3.4-2.7,3.1-2.3h.8l-3.2,2.3,3.5,2.8h-.8Z"/>
      <line class="st2" x1="14.9" y1="26.2" x2="82.7" y2="26.2"/>
    </g>
  </g>
  <g id="Layer_3">
    <g>
      <path class="st1" d="M20.6,18v.9c-1.2,1-2.4,2-3.6,3s-2.7,2-4.4,3.2c-.9,1.2-1.6,2.2-2.3,3s-1.2,1.4-1.6,1.9-.7.8-.7.8c-.2.2-.4.4-.8.5s-.7.3-.9.3-.6-.1-.8-.4-.3-.5-.3-.9c0-.9.5-1.8,1.4-2.8s2.2-2,4-3c.9-1.2,1.7-2.5,2.5-3.7s1.5-2.4,2.1-3.4,1.1-2.1,1.6-3.1c-.8.6-1.5,1.3-2.3,1.9s-1.5,1.2-2.2,1.7-1.2.9-1.4,1l-.5.3c-1.9,1.6-3.3,2.5-4.2,2.5s-1.6-.4-2.2-1.3-.9-1.9-.9-3.2.1-1.7.4-2.5.7-1.8,1.2-2.7,1.2-1.8,1.9-2.7,1.6-1.7,2.5-2.4c1.4-1.1,2.9-2.1,4.6-2.9s3.3-1.5,4.8-2,2.6-.7,3.3-.7.7,0,1,.3.4.5.5.8.2.7.2,1.1-.1.7-.3,1c-.3.5-.9.9-1.6,1.5s-1.6,1-2.4,1.4-1.3.6-1.4.6,0,0,0,0c0,0,.1-.3.4-.5s.5-.4.8-.7c.7-.5,1.1-1,1.2-1.6-1,.3-2.1.7-3.1,1.1s-2.1,1-3.1,1.7-2,1.4-3,2.2c-1.1,1-2.1,2-2.9,3s-1.4,2-1.8,2.9-.6,1.6-.6,2,.1.7.3.9.5.4.9.4,1-.2,1.7-.6c.7-.4,1.5-1,2.4-1.7s1.7-1.3,2.4-1.9,1.5-1.3,2.4-2c.8-.7,1.4-1.2,1.8-1.6s.8-.8,1-1.1c.5-.6.9-1,1.3-1.1s.8,0,1.1.3.5.6.5,1-.2.6-.7,1.5-1.2,2.1-2.1,3.8-2.1,3.6-3.6,5.9c1.2-.7,3.2-2,6-4Z"/>
      <path class="st1" d="M30.9,18v1.1c-.7.6-1.3,1.1-1.7,1.3s-1,.3-1.9.3c-1.4,1.7-2.6,2.5-3.7,2.5s-1.2-.2-1.6-.6-.9-.9-1.2-1.6-.4-1.5-.4-2.3.2-1.5.7-2.3,1-1.6,1.8-2.4,1.5-1.3,2.3-1.8,1.6-.7,2.3-.7.9,0,1.2.2.4.4.4.7-.1.5-.4.7c.4,0,.7.2.8.4s.2.6.2,1.1-.1,1.2-.4,2-.6,1.5-1,2.2l.3.3h.2c.2,0,.4,0,.5-.1s.3-.2.5-.3.4-.3.9-.7ZM27.6,13.8c-.9.5-1.7,1-2.3,1.5s-1.2.9-1.6,1.3-.7.9-.9,1.3c-.3,1.2-.4,1.9-.4,2,0,.7.5,1.1,1.5,1.1s1.2-.4,2.3-1.2c-.2-.5-.3-1-.3-1.5,0-.7.1-1.4.4-2.1s.7-1.5,1.2-2.4Z"/>
      <path class="st1" d="M41.3,18v1.1c-.7.6-1.3,1.1-1.7,1.3s-1,.3-1.9.3c-1.4,1.7-2.6,2.5-3.7,2.5s-1.2-.2-1.6-.6-.9-.9-1.2-1.6-.4-1.5-.4-2.3.2-1.5.7-2.3,1-1.6,1.8-2.4,1.5-1.3,2.3-1.8,1.6-.7,2.3-.7.9,0,1.2.2.4.4.4.7-.1.5-.4.7c.4,0,.7.2.8.4s.2.6.2,1.1-.1,1.2-.4,2-.6,1.5-1,2.2l.3.3h.2c.2,0,.4,0,.5-.1s.3-.2.5-.3.4-.3.9-.7ZM38,13.8c-.9.5-1.7,1-2.3,1.5s-1.2.9-1.6,1.3-.7.9-.9,1.3c-.3,1.2-.4,1.9-.4,2,0,.7.5,1.1,1.5,1.1s1.2-.4,2.3-1.2c-.2-.5-.3-1-.3-1.5,0-.7.1-1.4.4-2.1s.7-1.5,1.2-2.4Z"/>
      <path class="st1" d="M48.6,18.1c-.9,1.1-1.8,2-2.5,2.7s-1.4,1.3-1.8,1.7-.8.6-1,.6c-.3,0-.6-.2-.9-.7s-.6-1-.9-1.7-.4-1.4-.4-2.1c0-1,.5-2.1,1.5-3.2s2.2-1.9,3.5-2.6,2.3-1,2.9-1,1,.3,1.5,1c.8-1.7,1.6-3.3,2.4-4.6s1.4-2.3,1.9-3,.9-1,1.1-1,.5.1.7.3.3.5.3.8c0,.6-.4,1.5-1.2,2.9s-1.6,2.7-2.4,4-1.5,2.6-2.1,3.8-.9,2.4-.9,3.5.3,1.5.9,1.5.9-.2,1.4-.6,1.4-1.1,2.4-2.1v1.2c-2.3,3-4.1,4.5-5.4,4.5s-.9-.2-1.1-.6-.3-1-.3-1.7.1-2.1.4-3.3ZM49.8,14.1c-1,.3-2.1.8-3.4,1.6s-2.1,1.2-2.3,1.5c-.2.2-.4.6-.6,1.2s-.3,1-.3,1.3,0,.3.2.5.2.2.4.2.3,0,.5-.2.5-.4.9-.8.7-.6.8-.7c.2-.2.6-.5,1.2-1s1.1-.9,1.4-1.3.5-.6.7-1,.3-.8.4-1.2Z"/>
      <path class="st1" d="M55,18.5v-.4c2.8-2.9,4.7-5,5.7-6.2.2-1.3.8-2,1.7-2s.5,0,.7.2v.3c0,.1,0,.3,0,.5s0,.6.2,1.1.3,1,.4,1.4.1.8.1,1.3c0,.7-.2,1.4-.5,2s-.8,1.3-1.4,1.9-1.4,1.2-2.4,1.8c.4,0,.7,0,.9,0,.4,0,.9-.1,1.4-.3s1-.5,1.6-.9,1.2-.9,1.9-1.4v1.1c-1.4,1.3-2.6,2.4-3.7,3.1s-2,1-2.8,1-1.9-.4-2.8-1.3c-.5-.5-.8-1-.9-1.5s-.2-1.1-.2-1.9ZM61,16l-.3-2.4c-.7.8-2.1,2.2-4.3,4.3.6.1,1.1.3,1.3.6s.6.7,1,1.4c.7-.3,1.3-.7,1.7-1.2s.6-1.2.6-2.1,0-.2,0-.3,0-.2,0-.3Z"/>
      <path class="st1" d="M73.1,18v1.2c-1,1.3-2,2.4-2.9,3s-1.7,1-2.3,1-1.5-.5-2-1.4-.6-1.9-.6-3,0-.8.1-1.2.2-.7.3-.9.3-.6.7-1.2c1.5-2.4,2.9-3.6,4.2-3.6s1,.3,1,.8-.2.9-.6,1.6-.8,1.3-1.1,1.6c-.9.9-1.5,1.5-1.8,1.9s-.4.8-.4,1.2.1.7.4,1,.7.4,1.1.4,1.1-.2,1.7-.6,1.4-1,2.4-1.8ZM72,10.8c-.3,0-.5-.1-.8-.3s-.4-.5-.4-.8c0-.5.2-1,.7-1.6s.9-.9,1.4-.9.6,0,.8.3.3.5.3.9-.2,1-.7,1.5-.9.8-1.4.8Z"/>
      <path class="st1" d="M72.8,19.3v-1c.6-.7,1-1.3,1.3-1.8-.3-.1-.6-.3-.8-.4s-.2-.4-.2-.8.2-.9.5-1.5.7-1.1,1.2-1.7.9-.9,1.3-1c.2,0,.3-.1.4-.1.2,0,.3.1.3.3s-.2.6-.5,1.1c2.2-.3,3.6-.5,4.2-.5s.4,0,.5,0c.2,0,.3.3.5.7s.2.7.2,1.1-.1.5-.3.7-.5.6-1,1.2c-.6.6-1,1.3-1.4,2s-.6,1.3-.6,1.6.3.8.9.8,1.8-.7,3.4-2v1.1c-.9.9-1.6,1.7-2.2,2.2s-1.1,1-1.6,1.3-.9.5-1.3.5-.8-.2-1.1-.6-.5-1-.5-1.8.1-1,.4-1.6.6-1.2,1-1.9,1-1.4,1.5-2.1c-.3,0-.6.1-1,.2s-.8.1-1.2.2-.7.1-1,.2c-.7,1.3-1.6,2.5-2.9,3.6Z"/>
      <path class="st1" d="M63.6,32.6c0,0-.2-.1-.1-.2l1.3-1.4c0-.1-.3,0-.4,0s-.1-.1,0-.2l1.2-1.4h0c-.2,0-.5,0-.4-.2l1.1-1.2h0s0,0,0,0l1.1,1.2c0,.2-.2.2-.4.1h0s1.2,1.4,1.2,1.4c0,0,0,.1,0,.2,0,0-.4,0-.4,0l1.2,1.3c0,0,0,.2-.1.2h-.4s1,1.4,1,1.4c0,0,0,.2-.2.2h-2.5v.9c0,0-.2.1-.2.1-.1,0-.5,0-.7,0s-.2,0-.2-.1v-.9h-2.5c-.1,0-.2-.1-.2-.2l1-1.4s0,0,0,0c-.1,0-.3,0-.4,0Z"/>
      <path class="st1" d="M19.2,34.2l-3.7-4.5v4.5h-.6v-5h.8l3.7,4.5v-4.5h.6v5h-.8Z"/>
      <path class="st1" d="M27.4,34.2l-.8-1.4h-3.5l-.7,1.4h-.7l2.8-5h.7l2.9,5h-.7ZM24.8,29.6l-1.5,2.8h3.1l-1.6-2.8Z"/>
      <path class="st1" d="M30.8,29.5v4.6h-.6v-4.6h-2.2v-.4h5v.4h-2.2Z"/>
      <path class="st1" d="M37.1,34.2c-1.7,0-2.6-.7-2.6-1.9v-3.2h.6v3c0,.4,0,.8.3,1.1.4.4,1,.6,1.7.6s1.5-.2,1.8-.8c.2-.3.2-.6.2-.9v-3h.6v3.2c0,1.2-1,1.9-2.6,1.9Z"/>
      <path class="st1" d="M46.1,34.2c-.2-.4-.2-.8-.3-1.2,0-.8-.2-1.2-1.4-1.2h-1.6v2.4h-.6v-5h2.3c1.1,0,2.2.3,2.2,1.2s-.5,1-1.3,1.2c.4,0,.7.2.9.4.3.5.2,1.9.6,2.2h-.7ZM44.3,29.5h-1.6v1.8h1.5c.9,0,1.7-.2,1.7-1s-.8-.9-1.7-.9Z"/>
      <path class="st1" d="M48.9,34.2v-5h4.1v.4h-3.5v1.8h3.3v.4h-3.3v2h3.6v.4h-4.2Z"/>
      <path class="st1" d="M61.5,31.8c-.4,0-.9.1-1.4.1h-1.1v2.2h-.6v-5h1.9c.8,0,1.3,0,1.7.3.6.3.8.6.8,1.1s-.5,1.1-1.3,1.3ZM60.3,29.5h-1.3v2h1c.4,0,.9,0,1.3-.1.5-.1.8-.6.8-.9,0-.8-.8-1-1.8-1Z"/>
      <path class="st1" d="M68.8,34.2l-.8-1.4h-3.5l-.7,1.4h-.7l2.8-5h.7l2.9,5h-.7ZM66.2,29.6l-1.5,2.8h3.1l-1.6-2.8Z"/>
      <path class="st1" d="M75,34.2c-.2-.4-.2-.8-.3-1.2,0-.8-.2-1.2-1.4-1.2h-1.6v2.4h-.6v-5h2.3c1.1,0,2.2.3,2.2,1.2s-.5,1-1.3,1.2c.4,0,.7.2.9.4.3.5.2,1.9.6,2.2h-.7ZM73.3,29.5h-1.6v1.8h1.5c.9,0,1.7-.2,1.7-1s-.8-.9-1.7-.9Z"/>
      <path class="st1" d="M77.9,34.2v-5h.6v5h-.6ZM81.9,34.2l-3.4-2.7,3.1-2.3h.8l-3.2,2.3,3.5,2.8h-.8Z"/>
      <line class="st0" x1="14.9" y1="26.2" x2="82.7" y2="26.2"/>
    </g>
  </g>
</svg>